<?xml version="1.0" encoding="utf-8"?>
<!-- Generator: Adobe Illustrator 19.2.1, SVG Export Plug-In . SVG Version: 6.00 Build 0)  -->
<svg version="1.1" id="Layer_1" xmlns="http://www.w3.org/2000/svg" xmlns:xlink="http://www.w3.org/1999/xlink" x="0px" y="0px"
	 viewBox="0 0 970 715.9" style="enable-background:new 0 0 970 715.9;" xml:space="preserve">
<style type="text/css">
	.st0{fill:url(#SVGID_1_);}
	.st1{filter:url(#Adobe_OpacityMaskFilter);}
	.st2{filter:url(#Adobe_OpacityMaskFilter_1_);}
	.st3{mask:url(#SVGID_2_);fill:url(#SVGID_3_);}
	.st4{fill:url(#SVGID_4_);}
	.st5{fill:url(#SVGID_5_);}
	.st6{fill:url(#SVGID_6_);}
	.st7{fill:url(#SVGID_7_);}
	.st8{filter:url(#Adobe_OpacityMaskFilter_2_);}
	.st9{filter:url(#Adobe_OpacityMaskFilter_3_);}
	.st10{mask:url(#SVGID_8_);fill:url(#SVGID_9_);}
	.st11{fill:url(#SVGID_10_);}
	.st12{fill:url(#SVGID_11_);}
	.st13{fill:url(#SVGID_12_);}
	.st14{fill:url(#SVGID_13_);}
	.st15{filter:url(#Adobe_OpacityMaskFilter_4_);}
	.st16{filter:url(#Adobe_OpacityMaskFilter_5_);}
	.st17{mask:url(#SVGID_14_);fill:url(#SVGID_15_);}
	.st18{fill:url(#SVGID_16_);}
	.st19{fill:url(#SVGID_17_);}
	.st20{fill:url(#SVGID_18_);}
	.st21{fill:url(#SVGID_19_);}
	.st22{filter:url(#Adobe_OpacityMaskFilter_6_);}
	.st23{filter:url(#Adobe_OpacityMaskFilter_7_);}
	.st24{mask:url(#SVGID_20_);fill:url(#SVGID_21_);}
	.st25{fill:url(#SVGID_22_);}
	.st26{fill:url(#SVGID_23_);}
	.st27{fill:url(#SVGID_24_);}
	.st28{fill:#4E4E4E;}
	.st29{fill:url(#SVGID_25_);}
	.st30{fill:#FFFFFF;}
	.st31{fill:url(#SVGID_26_);}
</style>
<g>
	<g>
		
			<linearGradient id="SVGID_1_" gradientUnits="userSpaceOnUse" x1="48.8262" y1="3026.7654" x2="61.3592" y2="3026.7654" gradientTransform="matrix(1 0 0 1 234.9318 -2459.6394)">
			<stop  offset="6.134970e-03" style="stop-color:#989797"/>
			<stop  offset="0.2331" style="stop-color:#CFCFCF"/>
			<stop  offset="0.2822" style="stop-color:#FFFFFF"/>
			<stop  offset="0.3313" style="stop-color:#CFCFCF"/>
			<stop  offset="1" style="stop-color:#000000"/>
		</linearGradient>
		<rect x="283.8" y="423.1" class="st0" width="12.5" height="288.1"/>
		<defs>
			<filter id="Adobe_OpacityMaskFilter" filterUnits="userSpaceOnUse" x="283.8" y="680.9" width="12.5" height="28.8">
				<feFlood  style="flood-color:white;flood-opacity:1" result="back"/>
				<feBlend  in="SourceGraphic" in2="back" mode="normal"/>
			</filter>
		</defs>
		<mask maskUnits="userSpaceOnUse" x="283.8" y="680.9" width="12.5" height="28.8" id="SVGID_2_">
			<g class="st1">
				<defs>
					<filter id="Adobe_OpacityMaskFilter_1_" filterUnits="userSpaceOnUse" x="283.8" y="680.9" width="12.5" height="28.8">
						<feFlood  style="flood-color:white;flood-opacity:1" result="back"/>
						<feBlend  in="SourceGraphic" in2="back" mode="normal"/>
					</filter>
				</defs>
				<mask maskUnits="userSpaceOnUse" x="283.8" y="680.9" width="12.5" height="28.8" id="SVGID_2_">
					<g class="st2">
					</g>
				</mask>
				
					<linearGradient id="SVGID_3_" gradientUnits="userSpaceOnUse" x1="55.0927" y1="3141.6604" x2="55.0927" y2="3168.9338" gradientTransform="matrix(1 0 0 1 234.9318 -2459.6394)">
					<stop  offset="6.134970e-03" style="stop-color:#000000"/>
					<stop  offset="1" style="stop-color:#FFFFFF"/>
				</linearGradient>
				<rect x="283.8" y="680.9" class="st3" width="12.5" height="28.8"/>
			</g>
		</mask>
		
			<linearGradient id="SVGID_4_" gradientUnits="userSpaceOnUse" x1="55.0927" y1="3141.6604" x2="55.0927" y2="3168.9338" gradientTransform="matrix(1 0 0 1 234.9318 -2459.6394)">
			<stop  offset="6.134970e-03" style="stop-color:#989797"/>
			<stop  offset="1" style="stop-color:#000000"/>
		</linearGradient>
		<rect x="283.8" y="680.9" class="st4" width="12.5" height="28.8"/>
		
			<linearGradient id="SVGID_5_" gradientUnits="userSpaceOnUse" x1="1339.3702" y1="3168.8518" x2="1355.3702" y2="3168.8518" gradientTransform="matrix(-1 0 0 1 1637.2411 -2459.6394)">
			<stop  offset="6.134970e-03" style="stop-color:#989797"/>
			<stop  offset="0.2331" style="stop-color:#CFCFCF"/>
			<stop  offset="0.2822" style="stop-color:#FFFFFF"/>
			<stop  offset="0.3313" style="stop-color:#CFCFCF"/>
			<stop  offset="1" style="stop-color:#000000"/>
		</linearGradient>
		<rect x="281.9" y="703.3" class="st5" width="16" height="11.9"/>
		
			<linearGradient id="SVGID_6_" gradientUnits="userSpaceOnUse" x1="46.939" y1="3169.5898" x2="62.9387" y2="3169.5898" gradientTransform="matrix(1 0 0 1 234.9318 -2459.6394)">
			<stop  offset="6.134970e-03" style="stop-color:#989797"/>
			<stop  offset="0.2331" style="stop-color:#CFCFCF"/>
			<stop  offset="0.2822" style="stop-color:#FFFFFF"/>
			<stop  offset="0.3313" style="stop-color:#CFCFCF"/>
			<stop  offset="1" style="stop-color:#000000"/>
		</linearGradient>
		<rect x="281.9" y="704" class="st6" width="16" height="11.9"/>
	</g>
	<g>
		
			<linearGradient id="SVGID_7_" gradientUnits="userSpaceOnUse" x1="178.9124" y1="3026.7654" x2="191.4454" y2="3026.7654" gradientTransform="matrix(1 0 0 1 234.9318 -2459.6394)">
			<stop  offset="6.134970e-03" style="stop-color:#989797"/>
			<stop  offset="0.2331" style="stop-color:#CFCFCF"/>
			<stop  offset="0.2822" style="stop-color:#FFFFFF"/>
			<stop  offset="0.3313" style="stop-color:#CFCFCF"/>
			<stop  offset="1" style="stop-color:#000000"/>
		</linearGradient>
		<rect x="413.8" y="423.1" class="st7" width="12.5" height="288.1"/>
		<defs>
			<filter id="Adobe_OpacityMaskFilter_2_" filterUnits="userSpaceOnUse" x="413.8" y="680.9" width="12.5" height="28.8">
				<feFlood  style="flood-color:white;flood-opacity:1" result="back"/>
				<feBlend  in="SourceGraphic" in2="back" mode="normal"/>
			</filter>
		</defs>
		<mask maskUnits="userSpaceOnUse" x="413.8" y="680.9" width="12.5" height="28.8" id="SVGID_8_">
			<g class="st8">
				<defs>
					<filter id="Adobe_OpacityMaskFilter_3_" filterUnits="userSpaceOnUse" x="413.8" y="680.9" width="12.5" height="28.8">
						<feFlood  style="flood-color:white;flood-opacity:1" result="back"/>
						<feBlend  in="SourceGraphic" in2="back" mode="normal"/>
					</filter>
				</defs>
				<mask maskUnits="userSpaceOnUse" x="413.8" y="680.9" width="12.5" height="28.8" id="SVGID_8_">
					<g class="st9">
					</g>
				</mask>
				
					<linearGradient id="SVGID_9_" gradientUnits="userSpaceOnUse" x1="185.1789" y1="3141.6604" x2="185.1789" y2="3168.9338" gradientTransform="matrix(1 0 0 1 234.9318 -2459.6394)">
					<stop  offset="6.134970e-03" style="stop-color:#000000"/>
					<stop  offset="1" style="stop-color:#FFFFFF"/>
				</linearGradient>
				<rect x="413.8" y="680.9" class="st10" width="12.5" height="28.8"/>
			</g>
		</mask>
		
			<linearGradient id="SVGID_10_" gradientUnits="userSpaceOnUse" x1="185.1789" y1="3141.6604" x2="185.1789" y2="3168.9338" gradientTransform="matrix(1 0 0 1 234.9318 -2459.6394)">
			<stop  offset="6.134970e-03" style="stop-color:#989797"/>
			<stop  offset="1" style="stop-color:#000000"/>
		</linearGradient>
		<rect x="413.8" y="680.9" class="st11" width="12.5" height="28.8"/>
		
			<linearGradient id="SVGID_11_" gradientUnits="userSpaceOnUse" x1="1209.2841" y1="3168.8518" x2="1225.2841" y2="3168.8518" gradientTransform="matrix(-1 0 0 1 1637.2411 -2459.6394)">
			<stop  offset="6.134970e-03" style="stop-color:#989797"/>
			<stop  offset="0.2331" style="stop-color:#CFCFCF"/>
			<stop  offset="0.2822" style="stop-color:#FFFFFF"/>
			<stop  offset="0.3313" style="stop-color:#CFCFCF"/>
			<stop  offset="1" style="stop-color:#000000"/>
		</linearGradient>
		<rect x="412" y="703.3" class="st12" width="16" height="11.9"/>
		
			<linearGradient id="SVGID_12_" gradientUnits="userSpaceOnUse" x1="177.0251" y1="3169.5898" x2="193.0249" y2="3169.5898" gradientTransform="matrix(1 0 0 1 234.9318 -2459.6394)">
			<stop  offset="6.134970e-03" style="stop-color:#989797"/>
			<stop  offset="0.2331" style="stop-color:#CFCFCF"/>
			<stop  offset="0.2822" style="stop-color:#FFFFFF"/>
			<stop  offset="0.3313" style="stop-color:#CFCFCF"/>
			<stop  offset="1" style="stop-color:#000000"/>
		</linearGradient>
		<rect x="412" y="704" class="st13" width="16" height="11.9"/>
	</g>
	<g>
		
			<linearGradient id="SVGID_13_" gradientUnits="userSpaceOnUse" x1="308.9986" y1="3026.7654" x2="321.5316" y2="3026.7654" gradientTransform="matrix(1 0 0 1 234.9318 -2459.6394)">
			<stop  offset="6.134970e-03" style="stop-color:#989797"/>
			<stop  offset="0.2331" style="stop-color:#CFCFCF"/>
			<stop  offset="0.2822" style="stop-color:#FFFFFF"/>
			<stop  offset="0.3313" style="stop-color:#CFCFCF"/>
			<stop  offset="1" style="stop-color:#000000"/>
		</linearGradient>
		<rect x="543.9" y="423.1" class="st14" width="12.5" height="288.1"/>
		<defs>
			<filter id="Adobe_OpacityMaskFilter_4_" filterUnits="userSpaceOnUse" x="543.9" y="680.9" width="12.5" height="28.8">
				<feFlood  style="flood-color:white;flood-opacity:1" result="back"/>
				<feBlend  in="SourceGraphic" in2="back" mode="normal"/>
			</filter>
		</defs>
		<mask maskUnits="userSpaceOnUse" x="543.9" y="680.9" width="12.5" height="28.8" id="SVGID_14_">
			<g class="st15">
				<defs>
					<filter id="Adobe_OpacityMaskFilter_5_" filterUnits="userSpaceOnUse" x="543.9" y="680.9" width="12.5" height="28.8">
						<feFlood  style="flood-color:white;flood-opacity:1" result="back"/>
						<feBlend  in="SourceGraphic" in2="back" mode="normal"/>
					</filter>
				</defs>
				<mask maskUnits="userSpaceOnUse" x="543.9" y="680.9" width="12.5" height="28.8" id="SVGID_14_">
					<g class="st16">
					</g>
				</mask>
				
					<linearGradient id="SVGID_15_" gradientUnits="userSpaceOnUse" x1="315.2651" y1="3141.6604" x2="315.2651" y2="3168.9338" gradientTransform="matrix(1 0 0 1 234.9318 -2459.6394)">
					<stop  offset="6.134970e-03" style="stop-color:#000000"/>
					<stop  offset="1" style="stop-color:#FFFFFF"/>
				</linearGradient>
				<rect x="543.9" y="680.9" class="st17" width="12.5" height="28.8"/>
			</g>
		</mask>
		
			<linearGradient id="SVGID_16_" gradientUnits="userSpaceOnUse" x1="315.2651" y1="3141.6604" x2="315.2651" y2="3168.9338" gradientTransform="matrix(1 0 0 1 234.9318 -2459.6394)">
			<stop  offset="6.134970e-03" style="stop-color:#989797"/>
			<stop  offset="1" style="stop-color:#000000"/>
		</linearGradient>
		<rect x="543.9" y="680.9" class="st18" width="12.5" height="28.8"/>
		
			<linearGradient id="SVGID_17_" gradientUnits="userSpaceOnUse" x1="1079.1979" y1="3168.8518" x2="1095.1979" y2="3168.8518" gradientTransform="matrix(-1 0 0 1 1637.2411 -2459.6394)">
			<stop  offset="6.134970e-03" style="stop-color:#989797"/>
			<stop  offset="0.2331" style="stop-color:#CFCFCF"/>
			<stop  offset="0.2822" style="stop-color:#FFFFFF"/>
			<stop  offset="0.3313" style="stop-color:#CFCFCF"/>
			<stop  offset="1" style="stop-color:#000000"/>
		</linearGradient>
		<rect x="542" y="703.3" class="st19" width="16" height="11.9"/>
		
			<linearGradient id="SVGID_18_" gradientUnits="userSpaceOnUse" x1="307.1113" y1="3169.5898" x2="323.1111" y2="3169.5898" gradientTransform="matrix(1 0 0 1 234.9318 -2459.6394)">
			<stop  offset="6.134970e-03" style="stop-color:#989797"/>
			<stop  offset="0.2331" style="stop-color:#CFCFCF"/>
			<stop  offset="0.2822" style="stop-color:#FFFFFF"/>
			<stop  offset="0.3313" style="stop-color:#CFCFCF"/>
			<stop  offset="1" style="stop-color:#000000"/>
		</linearGradient>
		<rect x="542" y="704" class="st20" width="16" height="11.9"/>
	</g>
	
		<linearGradient id="SVGID_19_" gradientUnits="userSpaceOnUse" x1="439.0847" y1="3026.7654" x2="451.6177" y2="3026.7654" gradientTransform="matrix(1 0 0 1 234.9318 -2459.6394)">
		<stop  offset="6.134970e-03" style="stop-color:#989797"/>
		<stop  offset="0.2331" style="stop-color:#CFCFCF"/>
		<stop  offset="0.2822" style="stop-color:#FFFFFF"/>
		<stop  offset="0.3313" style="stop-color:#CFCFCF"/>
		<stop  offset="1" style="stop-color:#000000"/>
	</linearGradient>
	<rect x="674" y="423.1" class="st21" width="12.5" height="288.1"/>
	<defs>
		<filter id="Adobe_OpacityMaskFilter_6_" filterUnits="userSpaceOnUse" x="674" y="680.9" width="12.5" height="28.8">
			<feFlood  style="flood-color:white;flood-opacity:1" result="back"/>
			<feBlend  in="SourceGraphic" in2="back" mode="normal"/>
		</filter>
	</defs>
	<mask maskUnits="userSpaceOnUse" x="674" y="680.9" width="12.5" height="28.8" id="SVGID_20_">
		<g class="st22">
			<defs>
				<filter id="Adobe_OpacityMaskFilter_7_" filterUnits="userSpaceOnUse" x="674" y="680.9" width="12.5" height="28.8">
					<feFlood  style="flood-color:white;flood-opacity:1" result="back"/>
					<feBlend  in="SourceGraphic" in2="back" mode="normal"/>
				</filter>
			</defs>
			<mask maskUnits="userSpaceOnUse" x="674" y="680.9" width="12.5" height="28.8" id="SVGID_20_">
				<g class="st23">
				</g>
			</mask>
			
				<linearGradient id="SVGID_21_" gradientUnits="userSpaceOnUse" x1="445.3513" y1="3141.6604" x2="445.3513" y2="3168.9338" gradientTransform="matrix(1 0 0 1 234.9318 -2459.6394)">
				<stop  offset="6.134970e-03" style="stop-color:#000000"/>
				<stop  offset="1" style="stop-color:#FFFFFF"/>
			</linearGradient>
			<rect x="674" y="680.9" class="st24" width="12.5" height="28.8"/>
		</g>
	</mask>
	
		<linearGradient id="SVGID_22_" gradientUnits="userSpaceOnUse" x1="445.3513" y1="3141.6604" x2="445.3513" y2="3168.9338" gradientTransform="matrix(1 0 0 1 234.9318 -2459.6394)">
		<stop  offset="6.134970e-03" style="stop-color:#989797"/>
		<stop  offset="1" style="stop-color:#000000"/>
	</linearGradient>
	<rect x="674" y="680.9" class="st25" width="12.5" height="28.8"/>
	
		<linearGradient id="SVGID_23_" gradientUnits="userSpaceOnUse" x1="949.1118" y1="3168.8518" x2="965.1118" y2="3168.8518" gradientTransform="matrix(-1 0 0 1 1637.2411 -2459.6394)">
		<stop  offset="6.134970e-03" style="stop-color:#989797"/>
		<stop  offset="0.2331" style="stop-color:#CFCFCF"/>
		<stop  offset="0.2822" style="stop-color:#FFFFFF"/>
		<stop  offset="0.3313" style="stop-color:#CFCFCF"/>
		<stop  offset="1" style="stop-color:#000000"/>
	</linearGradient>
	<rect x="672.1" y="703.3" class="st26" width="16" height="11.9"/>
	
		<linearGradient id="SVGID_24_" gradientUnits="userSpaceOnUse" x1="437.1975" y1="3169.5898" x2="453.1973" y2="3169.5898" gradientTransform="matrix(1 0 0 1 234.9318 -2459.6394)">
		<stop  offset="6.134970e-03" style="stop-color:#989797"/>
		<stop  offset="0.2331" style="stop-color:#CFCFCF"/>
		<stop  offset="0.2822" style="stop-color:#FFFFFF"/>
		<stop  offset="0.3313" style="stop-color:#CFCFCF"/>
		<stop  offset="1" style="stop-color:#000000"/>
	</linearGradient>
	<rect x="672.1" y="704" class="st27" width="16" height="11.9"/>
	<g>
		<g>
			<rect x="164.7" y="409.9" class="st28" width="2.1" height="35.6"/>
			
				<rect x="123.3" y="427.3" transform="matrix(0.7192 -0.6948 0.6948 0.7192 -256.068 223.0688)" class="st28" width="49.4" height="2.1"/>
			
				<rect x="146.9" y="403.7" transform="matrix(0.6949 -0.7191 0.7191 0.6949 -262.9023 237.1131)" class="st28" width="2.1" height="49.4"/>
		</g>
		<g>
			<rect x="200.2" y="409.9" class="st28" width="2.1" height="35.6"/>
			
				<rect x="158.8" y="427.3" transform="matrix(0.7193 -0.6947 0.6947 0.7193 -246.0941 247.7255)" class="st28" width="49.4" height="2.1"/>
			
				<rect x="182.4" y="403.7" transform="matrix(0.6949 -0.7191 0.7191 0.6949 -252.0674 262.6449)" class="st28" width="2.1" height="49.4"/>
		</g>
		<g>
			<rect x="235.7" y="409.9" class="st28" width="2.1" height="35.6"/>
			
				<rect x="194.3" y="427.3" transform="matrix(0.7192 -0.6948 0.6948 0.7192 -236.1481 272.458)" class="st28" width="49.4" height="2.1"/>
			
				<rect x="218" y="403.7" transform="matrix(0.6949 -0.7191 0.7191 0.6949 -241.2344 288.1816)" class="st28" width="2.1" height="49.4"/>
		</g>
		<g>
			<rect x="271.2" y="409.9" class="st28" width="2.1" height="35.6"/>
			
				<rect x="229.8" y="427.3" transform="matrix(0.7192 -0.6948 0.6948 0.7192 -226.1766 297.1298)" class="st28" width="49.4" height="2.1"/>
			
				<rect x="253.5" y="403.7" transform="matrix(0.6949 -0.7191 0.7191 0.6949 -230.4004 313.7153)" class="st28" width="2.1" height="49.4"/>
		</g>
		<g>
			<rect x="306.7" y="409.9" class="st28" width="2.1" height="35.6"/>
			
				<rect x="265.3" y="427.3" transform="matrix(0.7192 -0.6948 0.6948 0.7192 -216.1933 321.7457)" class="st28" width="49.4" height="2.1"/>
			
				<rect x="289" y="403.7" transform="matrix(0.6949 -0.7191 0.7191 0.6949 -219.5661 339.2473)" class="st28" width="2.1" height="49.4"/>
		</g>
		<g>
			<rect x="342.2" y="409.9" class="st28" width="2.1" height="35.6"/>
			
				<rect x="300.8" y="427.3" transform="matrix(0.7191 -0.6949 0.6949 0.7191 -206.2448 346.5469)" class="st28" width="49.4" height="2.1"/>
			
				<rect x="324.5" y="403.7" transform="matrix(0.6949 -0.7191 0.7191 0.6949 -208.7336 364.7936)" class="st28" width="2.1" height="49.4"/>
		</g>
		<g>
			<rect x="377.7" y="409.9" class="st28" width="2.1" height="35.6"/>
			
				<rect x="336.3" y="427.3" transform="matrix(0.7195 -0.6945 0.6945 0.7195 -196.2376 370.9094)" class="st28" width="49.4" height="2.1"/>
			
				<rect x="360" y="403.7" transform="matrix(0.6949 -0.7191 0.7191 0.6949 -197.8982 390.3152)" class="st28" width="2.1" height="49.4"/>
		</g>
		<g>
			<rect x="413.2" y="409.9" class="st28" width="2.1" height="35.6"/>
			
				<rect x="371.8" y="427.3" transform="matrix(0.7192 -0.6948 0.6948 0.7192 -186.2866 395.7515)" class="st28" width="49.4" height="2.1"/>
			
				<rect x="395.5" y="403.7" transform="matrix(0.6949 -0.7191 0.7191 0.6949 -187.0646 415.8567)" class="st28" width="2.1" height="49.4"/>
		</g>
		<g>
			<rect x="448.8" y="409.9" class="st28" width="2.1" height="35.6"/>
			
				<rect x="407.3" y="427.3" transform="matrix(0.7194 -0.6945 0.6945 0.7194 -176.3155 420.2488)" class="st28" width="49.4" height="2.1"/>
			
				<rect x="431" y="403.7" transform="matrix(0.6949 -0.7191 0.7191 0.6949 -176.2304 441.3913)" class="st28" width="2.1" height="49.4"/>
		</g>
		<g>
			<rect x="484.3" y="409.9" class="st28" width="2.1" height="35.6"/>
			
				<rect x="442.9" y="427.3" transform="matrix(0.7195 -0.6945 0.6945 0.7195 -166.3541 444.8929)" class="st28" width="49.4" height="2.1"/>
			
				<rect x="466.5" y="403.7" transform="matrix(0.6949 -0.7191 0.7191 0.6949 -165.3962 466.9253)" class="st28" width="2.1" height="49.4"/>
		</g>
		<g>
			<rect x="519.8" y="409.9" class="st28" width="2.1" height="35.6"/>
			
				<rect x="478.4" y="427.3" transform="matrix(0.7194 -0.6945 0.6945 0.7194 -156.3918 469.5727)" class="st28" width="49.4" height="2.1"/>
			
				<rect x="502" y="403.7" transform="matrix(0.6949 -0.7191 0.7191 0.6949 -154.5627 492.4532)" class="st28" width="2.1" height="49.4"/>
		</g>
		<g>
			<rect x="555.3" y="409.9" class="st28" width="2.1" height="35.6"/>
			
				<rect x="513.9" y="427.3" transform="matrix(0.7192 -0.6948 0.6948 0.7192 -146.411 494.4313)" class="st28" width="49.4" height="2.1"/>
			
				<rect x="537.5" y="403.7" transform="matrix(0.6949 -0.7191 0.7191 0.6949 -143.7279 517.9953)" class="st28" width="2.1" height="49.4"/>
		</g>
		<g>
			<rect x="590.8" y="409.9" class="st28" width="2.1" height="35.6"/>
			
				<rect x="549.4" y="427.3" transform="matrix(0.7195 -0.6945 0.6945 0.7195 -136.4712 518.8725)" class="st28" width="49.4" height="2.1"/>
			
				<rect x="573" y="403.7" transform="matrix(0.6949 -0.7191 0.7191 0.6949 -132.8939 543.5288)" class="st28" width="2.1" height="49.4"/>
		</g>
		<g>
			<rect x="626.3" y="409.9" class="st28" width="2.1" height="35.6"/>
			
				<rect x="584.9" y="427.3" transform="matrix(0.7194 -0.6945 0.6945 0.7194 -126.5062 543.5583)" class="st28" width="49.4" height="2.1"/>
			
				<rect x="608.5" y="403.7" transform="matrix(0.6949 -0.7191 0.7191 0.6949 -122.0595 569.0645)" class="st28" width="2.1" height="49.4"/>
		</g>
		<g>
			<rect x="661.8" y="409.9" class="st28" width="2.1" height="35.6"/>
			
				<rect x="620.4" y="427.3" transform="matrix(0.7194 -0.6945 0.6945 0.7194 -116.5444 568.2202)" class="st28" width="49.4" height="2.1"/>
			
				<rect x="644" y="403.7" transform="matrix(0.6949 -0.7191 0.7191 0.6949 -111.2272 594.5905)" class="st28" width="2.1" height="49.4"/>
		</g>
		<g>
			<rect x="697.3" y="409.9" class="st28" width="2.1" height="35.6"/>
			
				<rect x="655.9" y="427.3" transform="matrix(0.7193 -0.6947 0.6947 0.7193 -106.5407 593.0822)" class="st28" width="49.4" height="2.1"/>
			
				<rect x="679.6" y="403.7" transform="matrix(0.6949 -0.7191 0.7191 0.6949 -100.3911 620.1337)" class="st28" width="2.1" height="49.4"/>
		</g>
		<g>
			<rect x="732.8" y="409.9" class="st28" width="2.1" height="35.6"/>
			
				<rect x="691.4" y="427.3" transform="matrix(0.7193 -0.6947 0.6947 0.7193 -96.5726 617.7506)" class="st28" width="49.4" height="2.1"/>
			
				<rect x="715.1" y="403.7" transform="matrix(0.6949 -0.7191 0.7191 0.6949 -89.5572 645.6674)" class="st28" width="2.1" height="49.4"/>
		</g>
		<g>
			<rect x="768.3" y="409.9" class="st28" width="2.1" height="35.6"/>
			
				<rect x="726.9" y="427.3" transform="matrix(0.7194 -0.6945 0.6945 0.7194 -86.6588 642.2059)" class="st28" width="49.4" height="2.1"/>
			
				<rect x="750.6" y="403.7" transform="matrix(0.6949 -0.7191 0.7191 0.6949 -78.7228 671.2029)" class="st28" width="2.1" height="49.4"/>
		</g>
		<g>
			<rect x="803.8" y="409.9" class="st28" width="2.1" height="35.6"/>
			
				<rect x="762.4" y="427.3" transform="matrix(0.7195 -0.6945 0.6945 0.7195 -76.7037 666.8433)" class="st28" width="49.4" height="2.1"/>
			
				<rect x="786.1" y="403.7" transform="matrix(0.6949 -0.7191 0.7191 0.6949 -67.8916 696.7281)" class="st28" width="2.1" height="49.4"/>
		</g>
		<g>
			<rect x="839.3" y="409.9" class="st28" width="2.1" height="35.6"/>
			
				<rect x="797.9" y="427.3" transform="matrix(0.7193 -0.6947 0.6947 0.7193 -66.6682 691.7557)" class="st28" width="49.4" height="2.1"/>
			
				<rect x="821.6" y="403.7" transform="matrix(0.6949 -0.7191 0.7191 0.6949 -57.0547 722.2712)" class="st28" width="2.1" height="49.4"/>
		</g>
		<path class="st28" d="M841.1,446.6H129.2v-43.2h711.9V446.6z M131.2,444.5h707.8v-39.1H131.2V444.5z"/>
	</g>
	<linearGradient id="SVGID_25_" gradientUnits="userSpaceOnUse" x1="485" y1="434.1274" x2="485" y2="416.8256">
		<stop  offset="6.134970e-03" style="stop-color:#5C5C5C"/>
		<stop  offset="8.045585e-02" style="stop-color:#444444"/>
		<stop  offset="0.1915" style="stop-color:#262626"/>
		<stop  offset="0.3014" style="stop-color:#111111"/>
		<stop  offset="0.4084" style="stop-color:#040404"/>
		<stop  offset="0.5092" style="stop-color:#000000"/>
	</linearGradient>
	<rect x="120" y="416.6" class="st29" width="730" height="18.1"/>
	<g>
		<g>
			<rect x="10" y="10" class="st30" width="950" height="400"/>
			<linearGradient id="SVGID_26_" gradientUnits="userSpaceOnUse" x1="0" y1="210" x2="970" y2="210">
				<stop  offset="6.134970e-03" style="stop-color:#989797"/>
				<stop  offset="0.5031" style="stop-color:#F2F2F2"/>
				<stop  offset="0.5917" style="stop-color:#EBEAEA"/>
				<stop  offset="0.7187" style="stop-color:#D7D6D6"/>
				<stop  offset="0.868" style="stop-color:#B8B7B7"/>
				<stop  offset="1" style="stop-color:#989797"/>
			</linearGradient>
			<path class="st31" d="M960,10v400H10V10H960 M970,0h-10H10H0v10v400v10h10h950h10v-10V10V0L970,0z"/>
		</g>
	</g>
</g>
</svg>
