<svg style="position: absolute; width: 0; height: 0;" width="0" height="0" version="1.1" xmlns="http://www.w3.org/2000/svg" xmlns:xlink="http://www.w3.org/1999/xlink">
<defs>
<symbol id="billboards" viewBox="0 0 28 32">
<path class="path1" d="M25.227 16.031h-22.12c-1.709 0-3.107-1.398-3.107-3.107v-7.394c0-1.709 1.398-3.107 3.107-3.107h22.12c1.709 0 3.107 1.398 3.107 3.107v7.425c0 1.709-1.398 3.076-3.107 3.076zM26.718 12.862v-7.27c0-0.87-0.683-1.553-1.553-1.553h-21.996c-0.87 0-1.553 0.684-1.553 1.553v7.27c0 0.87 0.683 1.553 1.553 1.553h21.996c0.87 0 1.553-0.684 1.553-1.553z"></path>
<path class="path2" d="M17.553 28.831h-6.773v-13.266h6.773v13.266zM11.713 27.899h4.909v-11.402h-4.909v11.402z"></path>
<path class="path3" d="M10.822 16.236l0.842-0.399 5.839 12.325-0.842 0.399-5.839-12.325z"></path>
<path class="path4" d="M10.838 28.164l5.839-12.325 0.842 0.399-5.839 12.325-0.842-0.399z"></path>
<path class="path5" d="M19.262 32h-10.19c-0.994 0-1.833-0.808-1.833-1.833v-0.466c0-0.994 0.808-1.833 1.833-1.833h10.19c0.994 0 1.833 0.808 1.833 1.833v0.466c0 1.025-0.839 1.833-1.833 1.833zM9.072 28.831c-0.497 0-0.901 0.404-0.901 0.901v0.466c0 0.497 0.404 0.901 0.901 0.901h10.19c0.497 0 0.901-0.404 0.901-0.901v-0.466c0-0.497-0.404-0.901-0.901-0.901h-10.19z"></path>
<path class="path6" d="M9.476 2.889h-3.79v-2.889h3.79v2.889zM6.617 1.957h1.926v-1.025h-1.926v1.025z"></path>
<path class="path7" d="M16.062 2.889h-3.79v-2.889h3.79v2.889zM13.204 1.957h1.926v-1.025h-1.926v1.025z"></path>
<path class="path8" d="M22.649 2.889h-3.759v-2.889h3.79v2.889zM19.821 1.957h1.926v-1.025h-1.926v1.025z"></path>
</symbol>
<symbol id="bus" viewBox="0 0 35 32">
<path class="path1" d="M30.88 1.6c-1.84-0.6-6.040-1.6-13.32-1.6-7.32 0-11.44 1-13.28 1.6-0.96 0.32-1.48 1.16-1.48 2.16v22.76c0 0.84 0.48 1.48 1.28 1.6 0.080 0 0.32 0.040 0.32 0.12v2.36c0 0.76 0.64 1.4 1.4 1.4s1.4-0.64 1.4-1.4v-1.88c2.4 0.32 5.96 0.64 10.4 0.64s8-0.32 10.4-0.68v1.88c0 0.76 0.64 1.4 1.4 1.4s1.4-0.64 1.4-1.4v-2.36c0-0.040 0.24-0.080 0.32-0.12 0.8-0.12 1.28-0.8 1.28-1.6v-22.72c0-1-0.6-1.84-1.52-2.16zM9.56 2.64h16c0.4 0 0.72 0.4 0.72 0.8s-0.32 0.8-0.72 0.8h-16c-0.4 0-0.72-0.4-0.72-0.8s0.32-0.8 0.72-0.8zM5.92 19.52c0 0 4.56 0.96 4.52 2.16-0.040 1.24-5.040 1.16-5.8 0.8-0.76-0.32-0.52-2.64 1.28-2.96zM23.96 27.040h-12.8c-0.64 0-1.16-0.56-1.16-1.2s0.52-1.2 1.16-1.2h12.84c0.64 0 1.16 0.56 1.16 1.2s-0.56 1.2-1.2 1.2zM30.48 22.48c-0.76 0.32-5.76 0.44-5.8-0.8-0.040-1.2 4.52-2.16 4.52-2.16 1.8 0.32 2.040 2.64 1.28 2.96zM31.2 15.28c-1.2 1.52-6.84 2.68-13.6 2.68s-12.4-1.16-13.6-2.68v-9.84h27.2v9.84zM1.56 10.44c-0.56 0.48-1.56 1.44-1.56 2.2 0 0.8 0.84 3.6 1.48 5.16 0.16 0.32 0.52 0.16 0.52-0.2v-6.8c0-0.32-0.24-0.48-0.44-0.36zM33.56 10.44c-0.16-0.16-0.4 0.040-0.4 0.32v6.8c0 0.36 0.32 0.52 0.48 0.2 0.64-1.56 1.48-4.36 1.48-5.16 0-0.72-0.96-1.68-1.56-2.16z"></path>
</symbol>
<symbol id="candle" viewBox="0 0 23 32">
<path class="path1" d="M21.088 16.224h-19.52c-0.864 0-1.568 0.704-1.568 1.568v12.672c0 0.864 0.704 1.568 1.568 1.568h19.552c0.864 0 1.568-0.704 1.568-1.568v-12.672c-0.032-0.864-0.736-1.568-1.6-1.568zM5.12 29.792h-2.88v-11.328h2.88v11.328z"></path>
<path class="path2" d="M16.512 8.992c-0.576-5.408-5.184-8.992-5.184-8.992s-4.608 3.584-5.184 8.992c-0.608 5.408 5.184 6.592 5.184 6.592s5.76-1.184 5.184-6.592zM11.328 14.592c-5.632-4.384 0-9.728 0-9.728s5.632 5.344 0 9.728z"></path>
<path class="path3" d="M10.72 17.184c-0.032-0.096-0.992-2.112-0.032-5.952l1.28 0.32c-0.8 3.328-0.064 5.024-0.032 5.056l-1.216 0.576z"></path>
</symbol>
<symbol id="car" viewBox="0 0 102 32">
<path class="path1" d="M100.48 14.72c0-0.96-1.024-1.92-1.024-2.88v-3.456c-5.12 0.32-11.968-1.728-18.368-4.864-4.16-2.24-10.24-3.2-14.72-3.456h-16c-7.040 0.64-15.36 6.976-22.784 9.216-3.2 0.96-5.632 1.152-9.472 1.152-4.48 0-9.408 1.408-14.528 3.648-1.6 0.64-0.64 3.2-1.28 4.096-0.64 0.96-2.24 1.6-2.24 2.56 0 0.64 1.088 3.904 1.728 5.824 0.576 1.28 2.56 1.408 3.648 1.408-0.128-0.64-0.192-1.344-0.192-2.048 0-5.696 4.608-10.304 10.304-10.304 0.384 0 0.704 0 1.088 0.064 2.88 0.128 5.248 1.536 6.848 3.648 1.536 1.792 2.432 4.096 2.432 6.656 0 1.088-0.192 2.112-0.448 3.072l41.344-0.064c1.088-0.064 2.944 0 4.416 0-0.32-0.96-0.448-1.984-0.448-3.072 0-5.696 4.608-10.304 10.304-10.304 0.384 0 0.704 0 1.088 0.064 3.392 0.192 5.568 1.664 6.848 3.648 1.536 1.792 2.432 4.096 2.432 6.656 0 0.32 0 0.576-0.064 0.832 1.216 0.064 2.816 0.128 2.816 0.128 6.080-0.64 7.488-2.368 7.488-6.784v-0.96c-0.128-2.432-1.216-2.304-1.216-4.48zM58.752 11.328h-20.288c0.32-0.32 1.152-1.216 1.152-1.856 0-0.96-0.448-1.216-1.024-1.216h-1.984c10.304-5.952 10.88-6.144 19.264-6.144 0.64 0 5.44-0.32 5.44 0.96 0 0.704-1.6 5.632-2.56 8.256zM79.616 11.328h-16.256v-3.712c0-0.768 0.128-2.176 0.448-3.584 0.256-1.088 1.472-1.856 2.56-1.664 4.8 0.96 14.528 3.584 14.528 6.72 0.064 1.152-0.64 1.92-1.28 2.24zM15.488 17.536c-3.968 0-7.232 3.264-7.232 7.232s3.264 7.232 7.232 7.232c3.968 0 7.232-3.264 7.232-7.232s-3.264-7.232-7.232-7.232zM80.96 17.536c-3.968 0-7.232 3.264-7.232 7.232s3.264 7.232 7.232 7.232c3.968 0 7.232-3.264 7.232-7.232-0.064-3.968-3.264-7.232-7.232-7.232z"></path>
</symbol>
<symbol id="crane" viewBox="0 0 27 32">
<path class="path1" d="M20.896 8l5.952-0.64v-0.928l-0.736-0.096-7.488-6.208-0.032-0.128h-1.28v0.128l-16.352 6.304-0.96 0.032v0.864l1.76 0.064v0.8h1.184v6.24h-0.768v2.592h0.736v1.152h0.32c0.448 0 0.8 0.352 0.8 0.8s-0.352 0.8-0.8 0.8c-0.448 0-0.8-0.352-0.8-0.8h-0.64c0 0.8 0.64 1.44 1.44 1.44s1.44-0.64 1.44-1.44c0-0.672-0.48-1.248-1.12-1.408v-0.576h0.736v-2.592h-0.736v-6.176h1.184v-0.672l10.208 0.448v19.072l-1.504 2.464h-5.696v2.464h17.568v-2.464h-2.912l-1.504-2.432v-19.104zM25.024 6.24l-4.128-0.448h-1.664l-0.544-4.8 6.336 5.248zM16.832 22.944l3.264-2.496v2.496h-3.264zM19.296 23.744l-3.552 2.72v-2.72h3.552zM15.744 22.752v-2.72h3.552l-3.552 2.72zM16.832 19.2l3.264-2.496v2.496h-3.264zM15.744 19.008v-2.72h3.552l-3.552 2.72zM16.832 15.488l3.264-2.496v2.496h-3.264zM15.744 15.264v-2.72h3.552l-3.552 2.72zM16.832 11.744l3.264-2.496v2.496h-3.264zM15.744 11.552v-2.72h3.552l-3.552 2.72zM2.88 6.336l14.336-5.504-0.544 4.96h-1.728l-12.064 0.544zM16.288 27.072l3.808-2.912v2.912h-3.808z"></path>
</symbol>
<symbol id="general" viewBox="0 0 32 32">
<path class="path1" d="M16 32c-0.24 0-0.52 0-0.8 0-4.36-0.2-8.48-2.24-11.32-5.56-0.36-0.44-0.68-0.84-1-1.28-1.72-2.48-2.72-5.36-2.88-8.36 0-0.28 0-0.52 0-0.8 0-0.24 0-0.52 0-0.8 0.16-3.040 1.2-6 2.96-8.48 0.32-0.44 0.64-0.84 1-1.24 2.92-3.32 6.88-5.24 11.24-5.48h0.2v0.040c0.24-0.040 0.4-0.040 0.6-0.040s0.36 0 0.6 0.040v-0.040h0.2c4.36 0.2 8.36 2.16 11.24 5.44 0.36 0.4 0.68 0.8 1 1.24 1.8 2.48 2.8 5.44 2.96 8.48 0 0.28 0.040 0.52 0.040 0.8 0 0.24 0 0.52-0.040 0.8-0.16 3-1.12 5.88-2.88 8.36-0.32 0.48-0.64 0.88-1 1.32-2.84 3.32-7 5.32-11.32 5.56-0.28 0-0.56 0-0.8 0zM16.96 29.88c1.88-0.56 3.64-2.84 4.76-6.12-1.52-0.36-3.12-0.56-4.76-0.64v6.76zM10.24 23.76c1.12 3.28 2.88 5.56 4.76 6.12v-6.72c-1.64 0.040-3.24 0.28-4.76 0.6zM23.68 24.32c-0.6 1.84-1.44 3.44-2.4 4.72 1.92-0.8 3.68-2 5.12-3.56-0.84-0.44-1.76-0.84-2.72-1.16zM5.64 25.48c1.44 1.56 3.16 2.76 5.12 3.56-0.96-1.24-1.8-2.88-2.4-4.72-1 0.32-1.92 0.72-2.72 1.16zM24.2 22.4c1.24 0.4 2.4 0.92 3.4 1.48 1.4-2.080 2.24-4.44 2.4-6.92h-5.080c-0.080 1.92-0.32 3.72-0.72 5.44zM2 16.96c0.16 2.48 1 4.88 2.4 6.92 1-0.6 2.16-1.080 3.4-1.48-0.4-1.72-0.64-3.56-0.72-5.44h-5.080zM16.96 21.2c1.84 0.040 3.64 0.28 5.32 0.68 0.36-1.56 0.6-3.2 0.64-4.92h-5.96v4.24zM9.040 16.96c0.080 1.68 0.28 3.36 0.64 4.92 1.68-0.4 3.48-0.6 5.32-0.68v-4.24h-5.96zM30 15.040c-0.16-2.52-1.040-4.96-2.52-7.040-1 0.56-2.12 1.040-3.36 1.44 0.44 1.76 0.68 3.64 0.76 5.6h5.12zM22.96 15.040c-0.080-1.76-0.28-3.48-0.68-5.080-1.68 0.4-3.44 0.6-5.28 0.68v4.4h5.96zM15.040 15.040v-4.4c-1.84-0.040-3.6-0.28-5.28-0.68-0.4 1.6-0.64 3.32-0.68 5.080h5.96zM7.080 15.040c0.080-1.96 0.32-3.84 0.76-5.6-1.24-0.4-2.36-0.88-3.36-1.44-1.44 2.040-2.32 4.48-2.48 7.040h5.080zM16.96 8.64c1.64-0.040 3.2-0.28 4.72-0.6-1.12-3.2-2.88-5.4-4.72-5.96v6.56zM10.32 8.040c1.52 0.36 3.080 0.56 4.72 0.6v-6.52c-1.88 0.56-3.6 2.72-4.72 5.92zM21.24 2.96c0.96 1.2 1.76 2.76 2.36 4.56 0.96-0.32 1.84-0.68 2.64-1.12-1.4-1.48-3.12-2.68-5-3.44zM5.76 6.4c0.8 0.44 1.68 0.8 2.64 1.12 0.6-1.76 1.4-3.32 2.36-4.56-1.88 0.76-3.6 1.96-5 3.44z"></path>
</symbol>
<symbol id="hammer" viewBox="0 0 50 32">
<path class="path1" d="M19.547 1.042l-2.778-0.893c-0.050 0-0.050 0-0.099 0h-0.050c-1.24-0.397-2.58 0.298-2.977 1.588l-0.595 1.637c0.050 0 0.050 0 0.099 0.050 0 0 0.050 0 0.050 0 0.645 0.248 1.091 0.695 0.992 1.042s-0.843 0.496-1.588 0.248c0 0 0 0 0 0v0c0 0-0.050 0-0.050 0l-1.34 3.473c-0.149 0.447-0.298 0.893-0.397 1.29l-1.24 4.912c0.050 0 0.050 0 0.099 0.050 0 0 0 0 0 0 0.645 0.248 1.091 0.695 0.992 1.042s-0.695 0.447-1.34 0.298v0c-0.050 0-0.050 0-0.099 0 0 0 0 0 0 0l-0.099 0.347c-0.397 1.24 0.298 2.58 1.588 2.977l5.755 1.786c1.24 0.397 2.58-0.298 2.977-1.538l0.149-0.347c0 0 0 0 0 0-0.050 0-0.050 0-0.099-0.050v0c-0.645-0.248-1.042-0.695-0.943-1.042s0.744-0.447 1.439-0.298c0 0 0 0 0.050 0s0.050 0 0.099 0.050l1.836-4.763c0.149-0.447 0.298-0.843 0.397-1.29l0.893-3.622c0 0-0.050 0-0.050 0v0c0 0 0 0 0 0-0.744-0.248-1.29-0.744-1.141-1.091 0.099-0.347 0.695-0.447 1.389-0.298 0 0 0.050 0 0.050 0 0.050 0 0.050 0 0.099 0.050l0.447-1.687c0.397-1.24-0.298-2.58-1.538-2.977h-0.050c-0.050 0-0.050 0-0.099-0.050l-2.828-0.893z"></path>
<path class="path2" d="M22.921 11.709c-0.050 0.248-0.099 0.447-0.198 0.695-0.050 0.248-0.149 0.447-0.248 0.695l-0.447 1.24 25.55 7.988c0.645 0.198 1.29-0.149 1.488-0.794l0.496-1.637c0.198-0.645-0.149-1.29-0.794-1.488l-25.55-7.938-0.298 1.24z"></path>
<path class="path3" d="M20.589 26.047v0.645h-13.346v-0.645c-4.118 0.546-7.243 2.977-7.243 5.953v0h28.031c0-3.026-3.225-5.507-7.442-5.953z"></path>
<path class="path4" d="M7.789 24.26h12.205v2.084h-12.205v-2.084z"></path>
</symbol>
<symbol id="home" viewBox="0 0 25 32">
<path class="path1" d="M20.478 12.837v2.17l-10.239-9.872-10.239 9.872v-2.17l10.239-9.872 0.031 0.031 1.681 1.62v-4.096h-0.214v-0.52h2.262v0.52h-0.214v5.868z"></path>
<path class="path2" d="M7.916 9.811h4.646v0.245h-4.646v-0.245z"></path>
<path class="path3" d="M10.117 7.61h0.245v4.646h-0.245v-4.646z"></path>
<path class="path4" d="M0.795 30.38h18.552v1.65h-18.552v-1.65z"></path>
<path class="path5" d="M1.406 15.373l-0.092 0.061v15.037h17.849v-15.037l-0.092-0.061h-17.666zM6.388 23.351h-3.576v-4.585h3.607v4.585zM17.513 23.351h-3.607v-4.585h3.607v4.585z"></path>
<path class="path6" d="M10.269 6.113l-8.863 8.497h17.696l-8.833-8.497zM10.208 11.981c-1.1 0-1.987-0.886-1.987-1.956 0-1.1 0.886-1.987 1.987-1.987s1.987 0.886 1.987 1.987c-0.031 1.070-0.917 1.956-1.987 1.956z"></path>
<path class="path7" d="M23.534 30.38v1.62h-4.279v-1.62h-0.336v-1.375h2.476v1.375z"></path>
<path class="path8" d="M1.895 20.753h5.074v0.214h-5.074v-0.214z"></path>
<path class="path9" d="M4.523 18.277h0.214v5.074h-0.214v-5.074z"></path>
<path class="path10" d="M13.631 20.783h4.126v0.214h-4.126v-0.214z"></path>
<path class="path11" d="M15.557 18.277h0.214v5.104h-0.214v-5.104z"></path>
<path class="path12" d="M19.347 30.38h0.367v1.65h-0.367v-1.65z"></path>
<path class="path13" d="M24.695 18.888c-0.031 0.153-0.122 0.275-0.244 0.367s-0.275 0.122-0.428 0.092l-6.968-1.375 0.122-0.611 7.519 1.498v0.031z"></path>
<path class="path14" d="M23.534 18.949l-5.532 4.89-0.489-0.367 5.532-4.86z"></path>
</symbol>
<symbol id="internet" viewBox="0 0 39 32">
<path class="path1" d="M24.28 26.68c-0.16-0.28-0.44-0.44-0.76-0.44h-8.4c-0.32 0-0.6 0.16-0.76 0.44l-2.72 4.88c-0.12 0.2 0.040 0.44 0.24 0.44h14.84c0.24 0 0.36-0.24 0.24-0.44l-2.68-4.88z"></path>
<path class="path2" d="M38.2 0h-37.52c-0.4 0-0.68 0.28-0.68 0.68v20.68c0 0.36 0.28 0.64 0.68 0.64h15.76v2.040c0 0.28 0.24 0.48 0.48 0.48h5.28c0.28 0 0.48-0.24 0.48-0.48v-2.040h15.52c0.36 0 0.68-0.28 0.68-0.68v-20.64c0-0.4-0.28-0.68-0.68-0.68zM36.24 19.36h-33.6v-16.72h33.56v16.72z"></path>
<path class="path3" d="M29.56 15.64l0.84 0.84c0.2 0.2 0.44 0.28 0.68 0.28s0.52-0.080 0.68-0.28c0.4-0.4 0.4-1 0-1.4l-0.84-0.84 1.2-1.2-5.12-1.36 1.4 5.16 1.16-1.2z"></path>
</symbol>
<symbol id="menu" viewBox="0 0 32 32">
<path class="path1 fill-color3" d="M16 32c-8.814 0-16-7.186-16-16s7.186-16 16-16 16 7.186 16 16-7.186 16-16 16zM16 1.123c-8.197 0-14.877 6.681-14.877 14.877s6.681 14.877 14.877 14.877 14.877-6.681 14.877-14.877-6.681-14.877-14.877-14.877z"></path>
<path class="path2 fill-color3" d="M25.825 21.446h-19.649c-0.337 0-0.561-0.225-0.561-0.561s0.225-0.561 0.561-0.561h19.649c0.337 0 0.561 0.225 0.561 0.561s-0.225 0.561-0.561 0.561z"></path>
<path class="path3 fill-color3" d="M25.825 16.561h-19.649c-0.337 0-0.561-0.225-0.561-0.561s0.225-0.561 0.561-0.561h19.649c0.337 0 0.561 0.225 0.561 0.561s-0.225 0.561-0.561 0.561z"></path>
<path class="path4 fill-color3" d="M25.825 11.677h-19.649c-0.337 0-0.561-0.225-0.561-0.561s0.225-0.561 0.561-0.561h19.649c0.337 0 0.561 0.225 0.561 0.561s-0.225 0.561-0.561 0.561z"></path>
</symbol>
<symbol id="newspaper" viewBox="0 0 42 32">
<path class="path1" d="M19.24 25.6h5.24v0.56h-5.24v-0.56z"></path>
<path class="path2" d="M19.24 22.56h7.52v1.040h-7.52v-1.040z"></path>
<path class="path3" d="M19.24 24.32h15.4v0.56h-15.4v-0.56z"></path>
<path class="path4" d="M19.24 26.92h15.4v0.56h-15.4v-0.56z"></path>
<path class="path5" d="M19.24 29.52h15.4v0.56h-15.4v-0.56z"></path>
<path class="path6" d="M19.24 28.24h9.32v0.56h-9.32v-0.56z"></path>
<path class="path7" d="M24.96 25.6h9.68v0.56h-9.68v-0.56z"></path>
<path class="path8" d="M9.72 29.52h8.16v0.56h-8.16v-0.56z"></path>
<path class="path9" d="M10.64 24.32h7.2v0.56h-7.2v-0.56z"></path>
<path class="path10" d="M13.28 23h4.56v0.56h-4.56v-0.56z"></path>
<path class="path11" d="M29 28.24h5.6v0.56h-5.6v-0.56z"></path>
<path class="path12" d="M15.12 26.92h2.76v0.56h-2.76v-0.56z"></path>
<path class="path13" d="M2.48 25.6h15.4v0.56h-15.4v-0.56z"></path>
<path class="path14" d="M2.48 28.24h15.4v0.56h-15.4v-0.56z"></path>
<path class="path15" d="M2.48 26.92h12.16v0.56h-12.16v-0.56z"></path>
<path class="path16" d="M2.48 29.52h6.76v0.56h-6.76v-0.56z"></path>
<path class="path17" d="M12.36 16.080h5.48v2.040h-5.48v-2.040z"></path>
<path class="path18" d="M2.48 24.32h7.68v0.56h-7.68v-0.56z"></path>
<path class="path19" d="M2.48 18.64h12.64v2.040h-12.64v-2.040z"></path>
<path class="path20" d="M2.48 23h10.32v0.56h-10.32v-0.56z"></path>
<path class="path21" d="M2.48 16.080h9.16v2.040h-9.16v-2.040z"></path>
<path class="path22" d="M2.48 21.44h7.52v1.040h-7.52v-1.040z"></path>
<path class="path23" d="M2.48 9.88h15.4v4.72h-15.4v-4.72z"></path>
<path class="path24" d="M34.6 9.88h-15.36v11.72h15.4v-11.72zM26.92 11.32c1.040 0 1.88 0.84 1.88 1.88s-0.84 1.88-1.88 1.88c-1.040 0-1.88-0.84-1.88-1.88s0.84-1.88 1.88-1.88zM23.44 20.72c0.040-2.84 0.84-5.12 3.48-5.12 2.68 0 3.44 2.28 3.48 5.12h-6.96z"></path>
<path class="path25" d="M0.4 32h36.32v-24.68h-36.32c-0.52 0-0.52 24.68 0 24.68zM0.96 8h35.080v23.32h-35.080c-0.16-1.32-0.28-5.48-0.28-11.68 0-6.16 0.12-10.32 0.28-11.64z"></path>
<path class="path26" d="M41.92 7.52l-35.52-7.52-1.28 6.080 32.24 0.88-0.52 24.64z"></path>
</symbol>
<symbol id="phone" viewBox="0 0 32 32">
<path class="path1 fill-color2" d="M16 0c-8.873 0-16 7.127-16 16s7.127 16 16 16c8.873 0 16-7.127 16-16s-7.127-16-16-16zM25.891 22.255c-0.727 2.473-2.618 4.073-5.527 3.782-1.018 0-5.236-0.873-9.164-4.945-3.927-3.927-4.8-8.145-4.8-9.164-0.582-2.909 0.727-5.091 3.055-5.964 0.727-0.145 1.455 0.145 1.745 0.873l1.309 2.764c0.291 0.582 0.145 1.164-0.291 1.6l-1.891 1.891c0 0 0 1.6 3.2 4.655 3.055 3.055 4.655 3.2 4.655 3.2l1.891-1.891c0.436-0.436 1.164-0.582 1.745-0.291l3.2 1.6c0.727 0.436 1.018 1.164 0.873 1.891z"></path>
</symbol>
<symbol id="print" viewBox="0 0 40 32">
<path class="path1" d="M39.84 21.4l-3.44-1.96-2.64 0.96 2.96 1.68-21.32 7.6-11.72-6.64 2.72-0.96-2.48-1.44-3.24 1.16c-0.4 0.16-0.68 0.52-0.72 0.92-0.040 0.44 0.16 0.84 0.56 1.040l14.2 8.080c0.16 0.080 0.36 0.16 0.52 0.16 0.12 0 0.24-0.040 0.36-0.080l24-8.56c0.4-0.16 0.68-0.52 0.72-0.92 0.080-0.44-0.12-0.84-0.48-1.040z"></path>
<path class="path2" d="M39.84 14.36l-2.64-1.52-1.36 0.48-0.76 0.28-0.6 0.2 2.24 1.28-2.080 0.76-2.8 1-2.72 0.96-13.76 4.92-4.12-2.36-2.48-1.44-3-1.72-2.080-1.2 2-0.72-0.4-0.24-0.84-0.48-1.24-0.68-2.48 0.88c-0.4 0.16-0.68 0.52-0.72 0.92-0.040 0.44 0.16 0.84 0.56 1.040l0.040 0.040 5.48 3.12 2.48 1.44 6.16 3.52c0.16 0.080 0.36 0.16 0.52 0.16 0.12 0 0.24-0.040 0.36-0.080l24.080-8.6c0.040 0 0.080-0.040 0.12-0.040 0.32-0.16 0.56-0.48 0.6-0.88 0-0.4-0.2-0.8-0.56-1.040z"></path>
<path class="path3" d="M39.84 8.24l-14.2-8.080c-0.28-0.16-0.6-0.2-0.92-0.080l-24 8.56c-0.4 0.16-0.68 0.52-0.72 0.92s0.16 0.76 0.48 1c0.040 0 0.040 0.040 0.080 0.040l4.56 2.6 1.24 0.72 0.84 0.48 0.4 0.24 0.72 0.4c0.12 0.080 0.28 0.12 0.44 0.12l2.2 0.2 11.2 1c0.040 0 0.080 0 0.080 0 0.12 0 0.24-0.040 0.36-0.080l5.12-1.8 2.8-1 2.080-0.76 0.6-0.2 0.76-0.28 1.36-0.48 4.4-1.56c0.080-0.040 0.16-0.080 0.24-0.12 0.28-0.2 0.44-0.48 0.48-0.8-0.040-0.44-0.24-0.84-0.6-1.040zM34.8 9.64l-2 0.72-1.36 0.48-0.76 0.28-0.6 0.2-2.080 0.72-5.2 1.84-2.68-1.84-1.84-1.24-0.36-0.24-0.76-0.52-0.56-0.4-8.56 2.72-0.24-0.12-2.2-1.28-1.92-1.080 21.32-7.6 11.72 6.68-1.92 0.68z"></path>
</symbol>
<symbol id="radio" viewBox="0 0 30 32">
<path class="path1" d="M13.080 19.080h-0.48v-1.32h0.48v1.32zM15.080 17.28h-0.48v2.32h0.48v-2.32zM17.080 17.76h-0.48v1.32h0.48v-1.32zM11.080 17.28h-0.48v2.32h0.48v-2.32zM9.080 17.76h-0.48v1.32h0.48v-1.32zM5.040 17.76h-0.48v1.32h0.48v-1.32zM27.84 23.6h1v8.4h-28.84v-18.48h2.36v-4.24h0.4v-5.080h0.28v-4.2h0.96v4.2h0.28v5.080h0.4v4.24h24.2v4.92h-1v5.16zM18.36 28.8h-15.12v0.6h15.12v-0.6zM18.36 27.080h-15.12v0.6h15.12v-0.6zM18.36 25.32h-15.12v0.6h15.12v-0.6zM18.36 23.6h-15.12v0.6h15.12v-0.6zM18.44 16.4h-15.24v4.080h15.2v-4.080zM24.84 27.24c0-0.4-0.28-0.76-0.64-0.88v-0.8h-0.6v0.8c-0.36 0.12-0.64 0.48-0.64 0.88s0.28 0.76 0.64 0.88v0.88h0.6v-0.88c0.36-0.12 0.64-0.48 0.64-0.88zM26.24 19.76c0-1.28-1.040-2.36-2.36-2.36-1.28 0-2.36 1.040-2.36 2.36 0 1.28 1.040 2.36 2.36 2.36s2.36-1.040 2.36-2.36zM7.040 17.28h-0.48v2.32h0.48v-2.32zM28.4 19v4.040h1.88v-4.040h-1.88zM23.88 18.28c-0.8 0-1.48 0.64-1.48 1.48s0.64 1.48 1.48 1.48c0.8 0 1.48-0.64 1.48-1.48s-0.64-1.48-1.48-1.48z"></path>
</symbol>
<symbol id="searching" viewBox="0 0 34 32">
<path class="path1" d="M30.88 32c-0.704 0-1.408-0.288-1.92-0.832l-7.488-8.224-0.704 0.512c-2.24 1.664-4.992 2.592-7.776 2.592-3.2 0-6.24-1.152-8.64-3.296-5.344-4.768-5.824-13.024-1.056-18.368 2.464-2.784 6.016-4.384 9.728-4.384 3.2 0 6.272 1.184 8.64 3.296 4.576 4.064 5.696 10.912 2.624 16.224l-0.416 0.736 9.376 6.080c0.576 0.416 0.96 1.088 1.056 1.824 0.064 0.736-0.16 1.472-0.64 2.016l-0.832 0.928c-0.48 0.544-1.184 0.864-1.92 0.864h-0.032v0.032zM13.024 2.688c-2.944 0-5.76 1.248-7.712 3.456-3.808 4.256-3.424 10.816 0.832 14.592 1.888 1.664 4.32 2.592 6.848 2.592 2.944 0 5.76-1.248 7.712-3.456 3.776-4.256 3.392-10.816-0.864-14.592-1.856-1.664-4.288-2.592-6.816-2.592zM12.864 11.552c1.888 0 3.456-1.536 3.456-3.456 0-1.888-1.536-3.456-3.456-3.456-1.888 0-3.456 1.536-3.456 3.456 0.032 1.92 1.568 3.456 3.456 3.456zM14.464 11.968l-0.896 0.32-0.576 0.48c0 0 0 0-0.032 0.032l1.056 7.52c0.928-0.064 1.824-0.224 2.624-0.416l0.448-2.752v2.624c0.896-0.288 1.664-0.64 2.24-1.056v-2.080c0.032-2.208-0.704-4.224-4.864-4.672zM12.768 12.8c0 0-0.032 0 0 0l-0.608-0.512-0.896-0.32c-4.128 0.448-4.864 2.464-4.864 4.672v2.080c0.576 0.416 1.344 0.8 2.24 1.056v-2.624l0.448 2.752c0.8 0.224 1.664 0.352 2.624 0.416l1.056-7.52z"></path>
</symbol>
<symbol id="speaker" viewBox="0 0 39 32">
<path class="path1" d="M38.528 13.248c-1.536-7.712-4.352-13.664-6.624-13.216-0.8 0.16-1.408 1.12-1.76 2.656-5.888 8.672-14.048 10.336-16.672 10.656-0.352-0.448-0.896-0.672-1.44-0.544-0.096 0.032-0.192 0.064-0.256 0.096 0 0 0 0 0 0l-10.112 2.432c-0.544 0.128-0.96 0.544-1.12 1.056-1.28 4.288-0.16 6.752 1.856 8.48 0.352 0.288 0.8 0.416 1.248 0.352l1.312-0.224 3.424 6.944c0.096 0.128 0.832 0.032 1.088-0.064 0.32-0.096 2.368-0.608 2.368-0.608 0.16-0.128 0.288-0.256 0.384-0.384 0.032-0.032 0.064-0.096 0.096-0.16l0.32-0.96c0-0.032 0.032-0.064 0.032-0.096 0-0.096 0-0.16-0.032-0.224l-2.88-5.184 4.64-0.736c0 0 0 0 0 0 0.032 0 0.096 0 0.128-0.032 0.352-0.096 0.608-0.384 0.736-0.768 2.016-0.416 3.904-0.608 5.696-0.608 6.112 0 10.688 2.176 13.312 3.84 0.896 1.408 1.792 2.144 2.688 1.984 2.272-0.448 3.104-6.976 1.568-14.688zM20.96 20.896c-2.112 0-4.288 0.256-6.464 0.736-0.512-0.096-0.96-0.576-1.344-1.408-0.896-2.016-0.736-4.704-0.416-5.568 0.576-0.032 3.52-0.256 7.232-1.856 2.816-1.216 6.528-3.488 9.824-7.584-0.16 2.656 0.096 6.112 0.8 9.76 0.704 3.552 1.632 6.656 2.624 8.928-2.848-1.504-7.008-3.008-12.256-3.008zM37.568 26.272c-1.632 0.32-4.064-4.992-5.44-11.872s-1.152-12.704 0.48-13.024c1.632-0.32 4.064 4.992 5.44 11.872 1.344 6.88 1.152 12.704-0.48 13.024z"></path>
</symbol>
<symbol id="whatsapp" viewBox="0 0 32 32">
<path fill="#1ba638" class="path1 fill-color1" d="M16.123 0c-8.615 0-15.508 7.015-15.508 15.631 0 2.954 0.862 5.662 2.215 8l-2.831 8.369 8.615-2.708c2.215 1.231 4.8 1.969 7.508 1.969 8.615 0 15.631-7.015 15.631-15.631s-7.015-15.631-15.631-15.631zM16.123 28.554c-2.585 0-5.046-0.738-7.138-2.092l-5.046 1.6 1.6-4.8c-1.6-2.092-2.462-4.8-2.462-7.631 0-7.138 5.785-12.923 12.923-12.923s12.923 5.785 12.923 12.923c0.246 7.138-5.662 12.923-12.8 12.923zM23.508 19.077c-0.369-0.246-2.338-1.231-2.708-1.354s-0.615-0.246-0.862 0.123c-0.246 0.369-1.108 1.231-1.354 1.477s-0.492 0.246-0.862 0.123c-0.369-0.246-1.6-0.738-3.077-2.092-1.108-1.108-1.846-2.462-2.092-2.831s0-0.615 0.246-0.862c0.246-0.123 0.369-0.492 0.615-0.615 0.246-0.246 0.246-0.369 0.369-0.615s0.123-0.492 0-0.738c-0.123-0.246-0.862-2.215-1.108-2.954s-0.738-0.738-0.985-0.738c-0.246 0-0.492 0-0.738 0s-0.738 0-1.108 0.369c-0.369 0.492-1.354 1.354-1.477 3.323s1.231 3.938 1.477 4.185c0.246 0.246 2.585 4.554 6.523 6.277s4.062 1.231 4.677 1.231c0.738 0 2.338-0.862 2.708-1.846 0.369-0.862 0.369-1.723 0.246-1.846 0.123-0.246-0.123-0.369-0.492-0.615z"></path>
</symbol>
</defs>
</svg>
